<?xml version="1.0" encoding="UTF-8" standalone="no"?> <svg id="Layer_1" data-name="Layer 1" xmlns="http://www.w3.org/2000/svg" viewBox="0 0 32 32"><defs><style>.cls-1{fill:#231f20;}.cls-2{fill:#fff;}</style></defs><title>Analytics, chart, monitor, report, seo</title><path class="cls-1" d="M29,26H3a1,1,0,0,1-1-1V3A1,1,0,0,1,3,2H29a1,1,0,0,1,1,1V25A1,1,0,0,1,29,26ZM4,24H28V4H4Z"/><line class="cls-2" x1="16.02" y1="25" x2="16" y2="29"/><path class="cls-1" d="M16,30h0a1,1,0,0,1-1-1l0-4a1,1,0,0,1,2,0l0,4A1,1,0,0,1,16,30Z"/><path class="cls-1" d="M22,30a1,1,0,0,1-.8-.41L18.54,26h-5l-2.7,3.6a1,1,0,1,1-1.6-1.2l3-4A1,1,0,0,1,13,24h6a1,1,0,0,1,.81.41l2.95,4a1,1,0,0,1-.21,1.39A.92.92,0,0,1,22,30Z"/><path class="cls-1" d="M11,21a1,1,0,0,1-1-1V13a1,1,0,0,1,2,0v7A1,1,0,0,1,11,21Z"/><path class="cls-1" d="M16,21a1,1,0,0,1-1-1V8a1,1,0,0,1,2,0V20A1,1,0,0,1,16,21Z"/><path class="cls-1" d="M21,21a1,1,0,0,1-1-1V10a1,1,0,0,1,2,0V20A1,1,0,0,1,21,21Z"/></svg>